<?xml version="1.0" standalone="no"?>
<!DOCTYPE svg PUBLIC "-//W3C//DTD SVG 20010904//EN"
 "http://www.w3.org/TR/2001/REC-SVG-20010904/DTD/svg10.dtd">
<svg version="1.0" xmlns="http://www.w3.org/2000/svg"
 width="1125.000000pt" height="2387.000000pt" viewBox="0 0 1125.000000 2387.000000"
 preserveAspectRatio="xMidYMid meet">

<g transform="translate(0.000000,2387.000000) scale(0.100000,-0.100000)"
fill="#000000" stroke="none">
<path d="M0 11935 l0 -11935 5625 0 5625 0 0 11935 0 11935 -5625 0 -5625 0 0
-11935z m6060 3759 c113 -14 216 -29 230 -34 29 -10 111 -33 195 -54 50 -12
115 -34 240 -80 11 -5 34 -13 50 -18 17 -6 77 -33 135 -60 232 -110 208 -97
330 -178 224 -150 268 -181 295 -207 17 -16 53 -48 82 -70 29 -23 85 -76 125
-119 39 -44 110 -118 157 -166 48 -48 106 -115 131 -149 100 -136 134 -186
157 -228 12 -24 28 -50 34 -57 12 -14 62 -108 120 -224 149 -299 252 -685 275
-1035 14 -202 1 -532 -31 -800 -6 -51 -27 -136 -41 -171 -8 -18 -14 -49 -14
-69 0 -19 -4 -43 -9 -53 -5 -9 -15 -37 -22 -62 -7 -25 -17 -54 -24 -65 -6 -11
-15 -36 -19 -55 -18 -93 -205 -491 -290 -616 -12 -17 -42 -62 -68 -100 -26
-39 -54 -76 -62 -83 -9 -8 -16 -19 -16 -26 0 -30 -160 -226 -261 -320 -6 -5
-30 -28 -53 -50 -90 -85 -125 -115 -172 -151 -27 -20 -67 -53 -89 -73 -22 -20
-56 -45 -75 -55 -19 -11 -42 -25 -51 -33 -9 -7 -63 -42 -120 -78 -57 -35 -109
-69 -116 -74 -7 -6 -15 -11 -18 -11 -4 0 -32 -15 -64 -34 -32 -18 -86 -46
-122 -61 -35 -15 -82 -35 -104 -45 -22 -10 -60 -27 -85 -37 -73 -32 -153 -62
-185 -68 -43 -10 -125 -35 -160 -51 -29 -12 -128 -36 -170 -40 -11 -1 -47 -7
-80 -14 -33 -6 -71 -13 -85 -14 -14 -2 -45 -9 -70 -17 -61 -18 -707 -18 -795
0 -33 7 -82 14 -109 17 -27 3 -65 12 -84 20 -19 7 -49 14 -68 14 -18 0 -36 5
-39 10 -3 6 -14 10 -24 10 -10 0 -32 7 -47 15 -16 8 -39 15 -51 15 -13 0 -23
4 -23 8 0 4 -15 9 -32 10 -51 4 -150 32 -183 52 -16 9 -53 25 -82 34 -61 20
-292 136 -330 165 -14 12 -32 21 -39 21 -8 0 -14 4 -14 9 0 5 -16 16 -35 25
-19 9 -35 20 -35 24 0 4 -15 13 -32 21 -18 8 -47 26 -65 40 -17 14 -48 37 -68
51 -132 91 -302 251 -441 415 -28 33 -70 81 -92 107 -22 26 -43 56 -47 67 -3
10 -17 26 -30 35 -14 9 -25 22 -25 29 0 6 -20 41 -45 76 -25 36 -45 69 -45 74
0 6 -11 24 -23 41 -36 47 -162 293 -182 356 -10 30 -21 60 -26 65 -23 30 -118
347 -119 395 0 15 -4 30 -9 35 -11 13 -29 84 -41 169 -6 38 -13 72 -15 76 -2
3 -5 28 -6 56 -1 27 -5 58 -9 69 -10 26 -22 271 -21 405 2 206 48 511 106 705
15 50 31 104 35 120 35 125 55 187 76 232 13 28 24 56 24 62 0 6 13 34 29 63
15 29 32 64 36 78 4 14 31 67 59 118 28 51 63 115 79 144 15 28 41 68 57 88
17 21 30 42 30 46 0 5 25 40 55 78 30 38 55 72 55 75 0 4 20 32 45 62 25 30
57 69 72 88 55 68 329 339 383 379 30 23 89 68 131 101 43 33 108 76 145 97
38 20 89 50 114 67 53 35 251 135 330 167 30 12 75 30 100 41 70 29 131 50
177 59 23 5 76 21 118 35 41 14 88 25 103 25 15 0 43 5 62 10 52 15 302 52
405 60 144 11 404 1 625 -26z m-3865 -7266 c16 -35 62 -135 103 -223 41 -88
85 -183 97 -211 21 -48 45 -77 45 -55 0 8 78 182 199 446 16 33 31 70 35 83 4
12 11 22 16 22 10 0 12 -15 45 -300 34 -294 35 -302 49 -330 7 -15 23 -27 41
-31 17 -4 -15 -7 -70 -7 -55 0 -92 2 -83 5 26 7 31 42 20 135 -6 46 -16 148
-23 228 l-12 145 -33 -70 c-87 -187 -182 -403 -188 -428 -4 -16 -12 -27 -18
-25 -5 2 -35 58 -65 123 -30 66 -67 147 -82 180 -16 33 -44 94 -62 135 l-34
75 -7 -75 c-4 -41 -15 -147 -24 -234 l-17 -159 23 -19 c22 -18 21 -18 -66 -17
-49 1 -78 4 -64 6 35 7 57 29 64 66 3 18 17 136 31 262 33 309 37 335 45 335
3 0 19 -28 35 -62z m1303 -392 c75 -165 90 -190 117 -202 27 -12 22 -13 -65
-12 -52 0 -88 2 -79 5 28 7 28 37 0 109 l-26 69 -121 3 -120 3 -33 -78 -33
-77 22 -18 c22 -18 20 -18 -66 -17 -49 1 -79 4 -68 6 12 2 31 14 42 26 17 18
160 315 241 502 l22 50 40 -90 c23 -50 79 -175 127 -279z m566 202 c94 -89
204 -193 244 -232 l72 -70 0 207 0 207 -32 20 -33 20 85 0 85 0 -28 -23 -27
-22 -3 -271 -2 -272 -85 80 c-47 44 -154 146 -239 227 -84 80 -157 148 -162
149 -5 2 -9 -85 -9 -195 0 -208 3 -226 45 -236 11 -3 -20 -5 -70 -4 -49 0 -78
2 -62 4 15 2 32 13 38 25 7 13 10 107 7 284 -1 145 -1 264 1 264 2 0 81 -73
175 -162z m1941 -198 c78 -177 86 -192 119 -206 29 -12 25 -13 -61 -14 -93 0
-93 0 -73 20 20 20 20 20 -5 86 -13 36 -27 69 -30 75 -4 5 -59 9 -124 9 l-118
0 -27 -61 c-30 -70 -33 -104 -8 -118 12 -8 -7 -10 -73 -10 -49 1 -81 3 -70 6
37 9 64 45 106 142 23 53 45 101 49 106 7 11 82 171 125 269 l26 60 65 -145
c36 -79 81 -178 99 -219z m1389 85 c65 -143 124 -268 133 -277 8 -9 25 -19 37
-21 11 -2 -21 -5 -73 -6 -82 -1 -92 1 -76 12 22 17 18 48 -17 126 l-22 52
-120 -3 -120 -3 -29 -68 c-29 -70 -29 -102 1 -110 9 -3 -23 -5 -73 -4 -49 0
-80 2 -69 4 35 7 48 28 150 243 85 182 114 247 138 314 4 11 10 15 15 10 4 -5
61 -126 125 -269z m-2232 246 c60 -19 120 -71 152 -133 25 -49 29 -68 29 -137
0 -104 -32 -176 -102 -226 -66 -49 -106 -55 -323 -54 -106 1 -183 4 -170 6 13
3 27 16 33 29 13 35 12 470 -1 495 -6 10 -17 19 -25 19 -7 0 -17 5 -21 11 -9
15 376 6 428 -10z m1346 -2 l-28 -21 0 -255 0 -256 98 5 c72 4 107 10 130 24
18 10 32 21 32 24 0 3 9 16 20 30 l20 25 -9 -30 c-5 -16 -15 -45 -21 -62 l-12
-33 -196 1 c-109 1 -184 4 -169 6 18 3 31 13 38 29 12 33 12 455 -1 488 -5 14
-16 26 -24 26 -8 0 -18 5 -21 10 -4 6 26 10 82 10 l88 -1 -27 -20z m1740 -2
c-15 -12 -28 -29 -29 -37 -1 -8 -1 -122 0 -254 l1 -239 98 5 c108 5 144 19
177 68 11 16 21 27 23 26 1 -2 -7 -29 -18 -60 l-21 -56 -197 1 c-108 1 -188 4
-177 6 11 3 28 12 38 21 15 14 17 39 17 250 l0 234 -31 29 -31 29 88 0 89 0
-27 -23z m630 2 l-28 -21 0 -248 c0 -259 0 -262 45 -273 11 -2 -25 -5 -80 -4
-55 0 -90 2 -78 4 49 9 53 31 53 268 0 121 -3 229 -6 241 -3 12 -20 28 -37 37
-31 15 -30 16 63 16 l95 0 -27 -20z m326 1 c-38 -17 -249 -228 -249 -249 0 -5
56 -71 125 -145 83 -91 135 -140 155 -145 27 -8 25 -9 -20 -10 -31 -1 -63 6
-82 17 -17 9 -82 72 -143 140 l-111 122 105 123 c99 113 121 147 96 147 -5 0
-10 5 -10 10 0 6 35 10 88 9 l87 0 -41 -19z m-1373 -480 c44 -24 7 -90 -41
-75 -33 10 -22 85 13 85 4 0 17 -5 28 -10z"/>
<path d="M6205 15578 c-90 -32 -231 -91 -245 -102 -8 -8 -44 -29 -80 -47 -117
-60 -273 -190 -361 -299 -91 -114 -191 -325 -220 -464 -23 -108 -39 -240 -32
-267 7 -24 37 -24 123 -1 53 15 100 18 250 16 189 -2 292 -9 320 -24 8 -4 40
-11 70 -15 101 -12 256 -69 424 -156 l116 -59 20 32 c11 18 36 80 57 138 l38
105 -1 190 c0 161 -3 201 -21 266 -60 215 -205 484 -345 640 -55 61 -63 65
-113 47z"/>
<path d="M5493 15476 c-18 -12 -43 -36 -55 -52 -12 -16 -25 -31 -29 -34 -3 -3
-14 -20 -24 -39 l-17 -34 53 -53 c29 -30 59 -54 66 -54 7 0 41 27 76 61 34 34
81 75 105 92 23 17 42 35 42 40 0 14 -71 77 -98 88 -39 15 -85 9 -119 -15z"/>
<path d="M4931 15388 c-55 -95 -123 -310 -125 -398 -1 -37 -3 -35 165 -129 44
-24 162 -149 201 -213 42 -67 49 -64 63 27 19 113 117 342 187 433 17 23 17
25 -1 61 -30 58 -173 184 -246 216 -22 10 -66 30 -98 46 -89 44 -97 41 -146
-43z"/>
<path d="M6645 15312 c-50 -4 -75 -12 -75 -22 0 -5 27 -66 60 -135 43 -87 66
-125 78 -125 9 0 59 10 110 22 l93 22 -7 46 c-10 71 -47 144 -85 167 -33 20
-110 31 -174 25z"/>
<path d="M4523 15272 c-12 -20 -35 -63 -52 -94 -17 -31 -35 -59 -41 -63 -16
-10 -11 -43 8 -49 9 -2 44 -10 77 -16 33 -7 93 -23 133 -36 96 -32 100 -31
107 14 3 20 14 69 24 108 11 39 16 77 12 83 -4 6 -50 26 -102 45 -146 51 -141
51 -166 8z"/>
<path d="M7061 15049 c-40 -5 -122 -22 -182 -39 -60 -16 -115 -30 -122 -30 -7
0 -21 -6 -30 -12 -15 -12 -15 -19 4 -98 33 -138 31 -410 -3 -477 -6 -12 -8
-29 -4 -38 5 -14 12 -12 48 13 110 76 254 134 368 148 98 12 94 8 129 152 33
137 54 325 39 354 -14 29 -127 41 -247 27z"/>
<path d="M3848 15024 c-9 -11 -24 -50 -33 -89 -9 -38 -21 -79 -26 -90 -20 -44
-33 -200 -33 -380 1 -190 1 -190 38 -310 42 -134 107 -265 143 -288 7 -4 13
-13 13 -19 0 -33 223 -193 259 -186 9 2 44 40 79 86 100 129 284 308 370 357
17 11 32 22 32 26 0 3 48 30 108 60 59 29 123 63 143 75 20 12 58 29 85 38 27
8 78 25 114 38 61 22 65 25 63 53 -13 199 -232 435 -485 523 -123 43 -188 62
-273 77 -49 9 -110 21 -135 26 -25 6 -135 13 -245 16 -186 5 -201 4 -217 -13z"/>
<path d="M7373 14759 c-27 -8 -33 -15 -33 -38 0 -15 -9 -54 -20 -86 -30 -88
-28 -95 25 -95 24 0 89 -5 144 -11 115 -13 121 -11 141 53 8 24 22 59 32 79
36 71 -7 100 -156 105 -56 2 -116 -1 -133 -7z"/>
<path d="M3521 14554 c-23 -30 -25 -56 -7 -154 l11 -65 83 -3 83 -3 -3 123 -3
123 -71 3 c-68 3 -73 1 -93 -24z"/>
<path d="M7230 14463 c-188 -15 -370 -90 -490 -202 -69 -65 -110 -115 -110
-137 0 -6 19 -25 43 -42 67 -48 232 -208 298 -289 137 -167 278 -434 318 -601
17 -70 34 -82 96 -72 54 9 189 62 214 84 9 7 30 21 47 29 17 9 46 31 65 49 19
19 43 41 54 49 29 20 127 146 161 204 15 28 32 52 36 53 4 2 8 9 8 16 0 7 14
44 32 82 17 38 37 92 44 119 7 28 22 75 33 105 26 72 49 187 56 282 l7 77 -41
25 c-22 14 -46 26 -52 26 -6 0 -25 6 -42 14 -18 8 -63 24 -102 36 -38 11 -97
30 -130 40 -128 41 -385 66 -545 53z"/>
<path d="M5520 14360 c-149 -14 -379 -63 -426 -91 -17 -11 -40 -19 -51 -19
-12 0 -27 -7 -34 -16 -15 -19 -19 -15 140 -137 253 -195 268 -205 281 -191 5
5 58 107 119 226 103 203 109 218 92 228 -11 5 -23 9 -28 9 -4 -1 -46 -5 -93
-9z"/>
<path d="M5710 14346 c0 -19 45 -145 74 -211 13 -27 33 -77 46 -110 33 -88 42
-105 54 -105 6 0 38 26 72 58 34 31 110 102 170 156 60 55 110 105 112 111 6
22 -110 56 -329 94 -140 25 -199 27 -199 7z"/>
<path d="M3439 14243 c-63 -11 -206 -56 -243 -75 -16 -8 -17 -17 -11 -65 7
-57 16 -84 67 -193 33 -72 33 -72 86 -152 42 -66 45 -67 149 -41 73 17 337 24
426 11 28 -5 47 -4 47 2 0 5 -20 32 -45 60 -86 97 -152 221 -184 350 -11 46
-26 89 -31 95 -17 16 -190 21 -261 8z"/>
<path d="M6304 14158 c3 -35 11 -133 16 -218 6 -84 14 -158 19 -163 5 -5 38 0
77 12 38 11 128 36 199 55 72 19 143 39 159 46 l29 11 -59 55 c-32 31 -84 72
-114 92 -30 19 -68 46 -84 59 -35 30 -206 113 -230 113 -16 0 -18 -6 -12 -62z"/>
<path d="M4819 14142 c-58 -32 -112 -63 -120 -70 -8 -7 -39 -31 -69 -54 -83
-64 -125 -104 -214 -205 -130 -147 -216 -273 -274 -403 -48 -106 -48 -115 8
-115 55 1 244 14 285 20 17 3 61 8 98 11 38 4 71 12 73 18 4 11 -29 110 -116
349 -23 65 -40 120 -38 123 3 2 18 0 34 -5 16 -5 70 -21 119 -36 50 -15 99
-31 110 -36 33 -16 234 -67 240 -61 7 8 6 406 -1 470 -4 28 -12 52 -18 52 -6
0 -59 -26 -117 -58z"/>
<path d="M5654 14123 c-10 -16 -28 -45 -42 -67 -27 -43 -24 -58 23 -114 l27
-32 30 46 c16 26 30 59 30 73 1 26 -36 121 -46 121 -3 0 -13 -12 -22 -27z"/>
<path d="M5037 14074 c-4 -4 -7 -39 -7 -78 0 -71 0 -71 46 -118 25 -27 54 -48
65 -48 17 0 19 8 19 66 l0 66 -58 60 c-31 32 -61 56 -65 52z"/>
<path d="M6138 13995 l-48 -35 0 -65 c0 -78 10 -82 76 -29 44 36 44 37 44 100
0 76 -6 78 -72 29z"/>
<path d="M8135 13850 c-10 -16 -75 -184 -75 -193 0 -8 183 -97 200 -97 5 0 12
10 15 23 4 12 15 41 26 64 10 24 19 63 19 87 0 42 -3 47 -43 74 -23 17 -60 35
-82 41 -49 13 -52 14 -60 1z"/>
<path d="M6840 13819 c-22 -40 -130 -336 -130 -356 0 -16 49 -22 253 -29 117
-4 177 -2 177 4 0 30 -124 236 -168 279 -10 10 -28 32 -41 50 -12 18 -35 42
-51 53 l-29 21 -11 -22z"/>
<path d="M3170 13760 c-14 -4 -43 -8 -66 -9 -42 -1 -94 -21 -113 -45 -8 -10
-7 -24 4 -55 24 -70 47 -111 60 -111 7 0 46 20 87 45 42 25 81 45 87 45 17 0
91 39 91 48 -1 4 -13 25 -28 47 -23 33 -34 40 -62 42 -19 1 -46 -2 -60 -7z"/>
<path d="M5590 13749 c-335 -18 -652 -195 -823 -462 -49 -76 -117 -205 -117
-222 0 -4 -6 -21 -14 -38 -76 -169 -83 -482 -15 -662 10 -28 19 -56 19 -64 0
-11 38 -92 88 -186 28 -53 109 -159 159 -206 49 -48 139 -119 149 -119 3 0 25
-15 47 -32 23 -18 41 -31 42 -29 0 2 16 -3 35 -12 118 -54 190 -76 265 -83 17
-1 41 -5 55 -9 42 -11 233 -13 275 -3 22 5 65 13 95 17 30 5 89 22 130 40 41
17 80 31 87 31 6 0 18 6 25 13 7 6 41 27 75 45 34 18 74 43 90 57 15 13 51 43
79 67 28 24 78 74 110 112 58 68 184 269 184 294 0 7 9 33 20 56 50 110 69
435 34 585 -33 140 -127 331 -207 419 -94 103 -149 155 -207 196 -73 52 -254
146 -281 146 -9 0 -45 9 -80 19 -94 29 -179 37 -319 30z m323 -163 c125 -41
180 -67 274 -130 79 -54 76 -51 129 -108 124 -135 191 -255 234 -418 18 -70
22 -112 22 -235 0 -137 -3 -158 -30 -250 -55 -183 -128 -310 -239 -415 -57
-54 -119 -105 -152 -125 -112 -68 -142 -85 -181 -98 -100 -34 -157 -50 -195
-53 -22 -1 -70 -7 -107 -12 -108 -16 -302 22 -453 89 -43 19 -172 111 -226
161 -53 50 -138 159 -158 203 -8 17 -24 50 -36 75 -13 25 -33 79 -45 120 -12
41 -27 89 -33 105 -7 18 -11 92 -11 185 1 146 3 160 33 250 80 236 227 444
379 534 30 17 70 41 90 54 43 26 79 42 95 42 7 0 44 12 82 26 90 33 174 44
310 39 93 -3 127 -9 218 -39z"/>
<path d="M5503 13563 c-15 -3 -23 -12 -23 -24 0 -10 3 -19 7 -19 16 0 93 35
93 43 0 7 -38 7 -77 0z"/>
<path d="M5712 13563 c-18 -3 -22 -9 -17 -26 4 -12 9 -31 12 -42 10 -39 23
-46 52 -32 14 8 48 24 74 37 26 13 46 28 44 34 -5 16 -125 38 -165 29z"/>
<path d="M5340 13516 c-72 -28 -80 -33 -80 -57 0 -32 22 -32 101 2 77 33 91
43 82 66 -7 18 -37 15 -103 -11z"/>
<path d="M5610 13533 c-8 -3 -39 -16 -68 -30 -51 -23 -53 -25 -47 -56 10 -44
28 -80 40 -78 35 5 146 59 150 72 3 8 -1 33 -8 55 -14 39 -33 50 -67 37z"/>
<path d="M5934 13494 c3 -11 15 -49 26 -85 l20 -66 47 16 c65 23 93 39 93 55
0 31 -83 78 -164 93 -24 5 -27 3 -22 -13z"/>
<path d="M5833 13467 c-29 -13 -55 -26 -59 -30 -4 -4 -16 -7 -26 -7 -24 0 -23
-19 4 -107 17 -54 27 -73 40 -73 9 0 20 5 23 10 3 6 14 10 24 10 10 0 24 6 30
14 7 8 26 18 43 21 30 7 30 8 25 54 -7 57 -29 124 -42 127 -5 2 -33 -7 -62
-19z"/>
<path d="M5405 13448 c-67 -35 -74 -38 -89 -38 -27 0 -35 -23 -24 -77 10 -49
13 -53 39 -53 55 0 163 61 155 88 -3 9 -10 36 -16 60 -6 23 -14 42 -18 42 -4
0 -25 -10 -47 -22z"/>
<path d="M5185 13442 c-53 -30 -95 -66 -87 -74 10 -10 100 19 123 39 10 8 15
23 12 34 -6 23 -9 23 -48 1z"/>
<path d="M5615 13369 c-70 -29 -85 -45 -78 -82 11 -57 41 -122 57 -125 14 -3
119 48 139 68 9 8 -9 111 -25 143 -11 22 -31 21 -93 -4z"/>
<path d="M5167 13352 c-49 -22 -58 -29 -53 -46 2 -12 10 -42 16 -68 13 -53 16
-55 57 -33 15 9 40 20 56 25 15 5 30 17 34 26 8 22 -25 124 -40 123 -7 0 -38
-13 -70 -27z"/>
<path d="M6176 13371 c-8 -12 31 -143 45 -152 15 -9 71 14 84 35 7 12 0 25
-30 56 -44 45 -91 74 -99 61z"/>
<path d="M6043 13332 c-47 -23 -52 -28 -47 -51 10 -48 37 -136 44 -144 3 -4
37 6 75 23 76 34 74 27 42 145 -17 61 -37 66 -114 27z"/>
<path d="M5030 13293 c-19 -8 -49 -31 -66 -51 -31 -35 -32 -36 -17 -79 8 -24
18 -45 22 -48 4 -2 28 6 53 19 25 13 55 26 67 29 25 6 26 25 6 95 -17 57 -16
57 -65 35z"/>
<path d="M5432 13285 c-29 -13 -59 -22 -67 -18 -9 3 -15 -1 -15 -10 0 -8 -5
-17 -12 -19 -9 -3 -9 -18 1 -64 18 -82 38 -118 59 -108 9 3 31 12 47 18 17 6
45 20 63 31 31 19 33 23 28 60 -8 51 -36 135 -44 134 -4 0 -31 -11 -60 -24z"/>
<path d="M5875 13255 c-27 -13 -58 -26 -67 -29 -22 -7 -22 -38 0 -126 17 -65
17 -65 52 -63 19 1 39 7 45 15 5 7 29 22 53 32 24 11 45 23 48 28 5 8 -2 35
-33 126 -17 49 -27 51 -98 17z"/>
<path d="M6275 13206 c-31 -18 -40 -29 -38 -47 3 -40 23 -123 32 -132 4 -4 36
4 70 20 67 30 71 40 48 103 -32 87 -46 94 -112 56z"/>
<path d="M5213 13182 c-65 -32 -66 -51 -17 -169 l13 -31 58 23 c32 13 62 30
67 38 6 9 4 32 -6 63 -9 27 -19 61 -22 77 -8 34 -25 34 -93 -1z"/>
<path d="M5720 13182 c-14 -2 -32 -10 -41 -18 -9 -8 -18 -11 -22 -8 -7 8 -67
-37 -67 -50 0 -29 47 -159 59 -164 7 -3 28 3 46 12 17 10 38 18 46 19 8 2 25
10 38 19 l23 17 -16 74 c-19 86 -32 105 -66 99z"/>
<path d="M4876 13121 c-40 -63 -34 -74 23 -45 27 14 32 21 29 47 -4 45 -23 44
-52 -2z"/>
<path d="M6124 13131 c-34 -16 -64 -35 -67 -44 -12 -31 26 -147 49 -147 20 0
123 52 127 65 5 11 -31 135 -42 147 -4 4 -34 -5 -67 -21z"/>
<path d="M5110 13143 c0 -7 -5 -13 -12 -13 -6 0 -35 -12 -65 -26 -37 -18 -53
-32 -53 -46 0 -40 33 -150 47 -155 8 -3 32 4 53 16 46 26 50 26 50 3 0 -12
-13 -23 -37 -31 -62 -23 -63 -27 -41 -122 11 -46 26 -91 34 -99 10 -10 14 -10
14 -2 0 7 5 12 11 12 21 0 119 50 119 61 0 6 -10 49 -22 95 -17 65 -26 84 -39
84 -26 0 -34 19 -14 34 16 11 16 17 -5 92 -22 80 -39 121 -40 97z"/>
<path d="M5484 13076 c-17 -6 -37 -16 -45 -22 -8 -6 -22 -14 -32 -17 -16 -6
-18 -14 -12 -49 4 -22 15 -64 25 -92 20 -59 22 -59 118 -14 73 34 72 32 37
151 -18 62 -27 67 -91 43z"/>
<path d="M5933 13041 c-40 -20 -77 -41 -82 -46 -10 -10 14 -142 29 -158 4 -5
46 11 94 34 l87 43 -7 39 c-5 34 -41 130 -47 125 -1 0 -34 -17 -74 -37z"/>
<path d="M4862 13027 c-56 -29 -67 -62 -47 -142 9 -33 20 -64 25 -69 6 -6 36
3 80 24 80 38 77 28 43 153 -18 66 -30 70 -101 34z"/>
<path d="M6353 13016 c-76 -32 -79 -36 -59 -93 9 -26 18 -60 19 -75 2 -15 6
-31 10 -35 10 -9 74 14 110 39 29 21 31 40 7 108 -5 14 -11 37 -14 53 -7 32
-6 32 -73 3z"/>
<path d="M6450 13013 c0 -20 35 -113 43 -113 4 0 6 8 3 18 -3 9 -10 36 -16 60
-6 23 -15 42 -20 42 -6 0 -10 -3 -10 -7z"/>
<path d="M5315 13000 c-4 -6 -26 -20 -51 -31 -52 -25 -53 -31 -22 -135 21 -74
21 -74 54 -71 19 1 34 5 34 8 0 3 16 14 36 25 34 18 36 21 30 60 -14 104 -58
182 -81 144z"/>
<path d="M5760 12954 c-76 -34 -103 -49 -107 -61 -6 -15 23 -133 35 -145 9 -9
102 20 102 32 0 5 14 11 30 15 18 4 30 13 30 22 0 25 -40 153 -48 153 -4 0
-23 -7 -42 -16z"/>
<path d="M6158 12924 c-55 -28 -58 -40 -30 -134 14 -50 21 -60 39 -60 12 0 25
5 28 10 3 6 14 10 24 10 27 0 71 38 71 61 0 11 -7 46 -17 79 -15 54 -19 60
-42 60 -14 -1 -47 -12 -73 -26z"/>
<path d="M5533 12846 c-89 -45 -88 -43 -68 -125 21 -84 25 -85 120 -40 56 26
65 34 65 57 0 40 -31 142 -44 141 -6 0 -39 -15 -73 -33z"/>
<path d="M6000 12850 c-30 -16 -60 -30 -66 -30 -6 0 -18 -8 -26 -17 -14 -16
-13 -26 4 -93 11 -41 20 -80 21 -87 0 -13 29 -2 87 32 19 11 48 26 63 33 15 6
30 17 32 24 6 16 -40 161 -51 165 -5 1 -34 -11 -64 -27z"/>
<path d="M4777 12840 c-17 -51 -16 -61 6 -58 27 4 32 27 13 53 -12 16 -15 17
-19 5z"/>
<path d="M4955 12827 c-22 -11 -55 -26 -72 -35 -39 -18 -40 -32 -13 -104 11
-29 20 -61 20 -71 0 -10 7 -20 15 -23 17 -7 121 34 137 53 11 14 -8 107 -34
169 l-13 30 -40 -19z"/>
<path d="M6415 12811 c-22 -10 -48 -27 -57 -37 -16 -18 -16 -24 -1 -83 9 -34
22 -65 30 -68 18 -7 120 35 127 53 3 7 1 26 -3 41 -5 15 -14 47 -20 71 -13 47
-19 49 -76 23z"/>
<path d="M5380 12781 c0 -5 -10 -13 -22 -17 -39 -12 -78 -47 -78 -69 0 -11 9
-45 20 -75 11 -30 20 -56 20 -57 0 -8 40 -2 45 7 3 5 26 19 52 30 38 17 45 23
40 42 -3 13 -11 46 -18 73 -6 28 -16 56 -21 63 -12 14 -38 16 -38 3z"/>
<path d="M5772 12740 c-69 -33 -79 -47 -64 -88 5 -15 15 -46 21 -69 14 -50 33
-54 91 -23 19 10 46 24 59 30 25 11 25 20 0 128 -15 62 -20 63 -107 22z"/>
<path d="M4766 12734 c-17 -17 -17 -32 0 -172 5 -42 7 -43 32 -37 15 3 37 13
50 21 26 17 25 21 -7 137 -19 67 -43 84 -75 51z"/>
<path d="M6245 12726 c-81 -39 -86 -45 -74 -91 6 -22 13 -53 16 -68 3 -16 12
-31 20 -34 14 -6 117 42 133 62 14 17 -19 155 -37 155 -5 0 -30 -11 -58 -24z"/>
<path d="M5165 12669 c-11 -11 -28 -18 -38 -15 -31 8 -39 -34 -20 -110 9 -36
22 -68 30 -71 14 -5 137 49 146 64 2 4 -5 41 -17 81 -20 69 -22 72 -51 71 -16
0 -39 -9 -50 -20z"/>
<path d="M5601 12657 c-6 -8 -29 -22 -51 -32 -30 -13 -40 -24 -40 -41 0 -35
32 -133 45 -138 21 -8 155 58 155 76 0 10 -10 47 -21 83 -20 59 -24 65 -49 65
-15 0 -33 -6 -39 -13z"/>
<path d="M6065 12639 c-33 -16 -72 -33 -87 -38 -20 -7 -28 -17 -28 -33 0 -32
36 -132 49 -136 6 -2 47 14 91 35 91 43 92 45 57 139 l-22 61 -60 -28z"/>
<path d="M6451 12612 l-53 -26 5 -46 c10 -87 38 -118 78 -87 25 19 51 159 33
177 -5 5 -33 -3 -63 -18z"/>
<path d="M5478 12613 c7 -3 16 -2 19 1 4 3 -2 6 -13 5 -11 0 -14 -3 -6 -6z"/>
<path d="M4986 12580 c-33 -16 -63 -33 -68 -38 -9 -9 15 -100 38 -145 11 -20
18 -24 27 -16 7 6 35 23 62 38 48 26 50 28 47 66 -3 46 -26 118 -38 122 -5 1
-36 -11 -68 -27z"/>
<path d="M5405 12565 c-16 -13 -35 -24 -41 -25 -6 0 -17 -7 -24 -15 -11 -13
-10 -27 5 -78 27 -93 34 -97 100 -64 58 28 75 33 75 18 0 -11 -76 -61 -93 -61
-25 0 -49 -36 -38 -57 5 -10 13 -34 16 -53 3 -19 14 -46 24 -59 l19 -25 32 27
c17 15 39 27 47 27 9 0 25 7 34 16 15 13 16 21 7 37 -12 23 -37 108 -43 148
-5 36 -34 129 -48 159 -17 34 -36 35 -72 5z"/>
<path d="M5831 12534 c-80 -41 -84 -45 -72 -75 5 -13 17 -50 27 -82 12 -40 20
-55 28 -47 5 5 16 10 24 10 7 0 28 11 46 25 18 14 38 25 43 25 26 0 33 27 19
71 -8 24 -17 56 -20 70 -3 15 -11 29 -18 31 -7 2 -42 -11 -77 -28z"/>
<path d="M6300 12539 c-19 -10 -40 -19 -46 -19 -17 0 -45 -36 -40 -51 3 -8 12
-40 21 -71 17 -63 37 -74 69 -40 9 11 34 24 56 31 44 13 45 16 28 93 -18 84
-28 91 -88 57z"/>
<path d="M4805 12493 c-15 -15 -24 -31 -21 -41 3 -9 8 -30 12 -47 13 -59 33
-87 57 -80 73 20 78 34 48 130 -16 52 -22 60 -44 61 -14 1 -37 -10 -52 -23z"/>
<path d="M5276 12493 c-4 -5 -11 -8 -14 -9 -11 -1 -45 -15 -80 -32 -31 -16
-33 -20 -28 -52 12 -74 34 -135 47 -132 32 7 139 68 139 79 0 7 -6 32 -14 55
-8 24 -17 55 -20 71 -6 27 -16 34 -30 20z"/>
<path d="M5675 12461 c-36 -12 -95 -53 -106 -73 -7 -12 -7 -24 -1 -31 5 -7 15
-36 22 -64 6 -29 15 -53 18 -53 4 0 38 15 75 33 43 22 66 28 62 19 -3 -7 -5
-18 -5 -23 0 -5 -9 -9 -19 -9 -11 0 -26 -6 -33 -13 -7 -7 -25 -18 -40 -24 -16
-7 -28 -19 -28 -27 0 -23 31 -140 40 -149 4 -5 27 1 51 12 23 12 48 21 53 21
6 0 21 8 34 18 l22 17 -20 80 c-11 43 -24 81 -28 84 -4 4 -7 17 -7 31 0 14 -8
47 -17 75 -10 27 -18 58 -18 67 0 19 -18 22 -55 9z"/>
<path d="M6110 12446 c-25 -13 -48 -22 -51 -21 -3 2 -18 -6 -34 -19 -28 -22
-28 -24 -16 -72 17 -72 32 -104 47 -104 8 0 14 4 14 9 0 5 15 14 33 21 62 22
117 55 117 68 0 8 -8 43 -17 78 -19 73 -25 75 -93 40z"/>
<path d="M5055 12400 c-4 -6 -23 -18 -43 -28 -33 -15 -37 -21 -36 -52 3 -55
24 -128 39 -134 13 -5 60 13 95 35 8 5 23 12 33 15 21 8 21 4 -6 94 -21 66
-27 75 -49 78 -14 2 -29 -2 -33 -8z"/>
<path d="M6450 12395 c0 -8 5 -15 10 -15 6 0 10 7 10 15 0 8 -4 15 -10 15 -5
0 -10 -7 -10 -15z"/>
<path d="M6378 12373 c-1 -5 -25 -19 -51 -32 -27 -13 -51 -30 -54 -38 -10 -25
30 -157 48 -161 16 -3 23 7 86 108 23 36 27 67 17 108 -6 21 -38 31 -46 15z"/>
<path d="M5871 12330 c-62 -30 -63 -31 -57 -63 15 -79 34 -132 47 -129 12 3
136 61 148 68 1 2 -5 37 -15 78 -21 90 -26 92 -123 46z"/>
<path d="M4883 12310 c-18 -11 -33 -24 -33 -30 0 -19 37 -84 59 -104 17 -16
19 -22 9 -34 -11 -13 -9 -14 12 -7 49 14 55 28 37 87 -9 29 -19 65 -23 81 -7
32 -18 34 -61 7z"/>
<path d="M5330 12289 c-8 -4 -38 -18 -67 -30 -28 -11 -54 -27 -57 -35 -5 -12
26 -150 36 -159 2 -2 29 9 61 26 31 16 64 29 72 29 18 0 19 29 3 102 -13 61
-26 80 -48 67z"/>
<path d="M6138 12241 c-38 -20 -73 -42 -78 -47 -12 -12 17 -154 33 -165 5 -4
50 13 99 38 l90 44 -7 42 c-4 23 -11 47 -15 52 -4 6 -11 25 -15 43 -8 41 -21
40 -107 -7z"/>
<path d="M5125 12191 c-93 -38 -105 -48 -99 -84 10 -54 24 -95 39 -107 20 -17
75 -3 112 28 l32 27 -15 65 c-22 90 -22 91 -69 71z"/>
<path d="M5545 12175 c-61 -19 -105 -45 -105 -61 0 -24 39 -157 49 -167 6 -6
23 1 44 17 18 14 41 26 49 26 8 0 23 9 33 21 17 18 17 24 6 52 -7 18 -18 53
-24 78 l-12 46 -40 -12z"/>
<path d="M5986 12163 c-10 -3 -39 -17 -65 -32 -34 -20 -47 -34 -49 -54 -4 -33
29 -147 42 -147 5 0 40 14 78 31 74 35 75 36 57 118 -12 59 -36 90 -63 84z"/>
<path d="M4970 12106 c0 -7 7 -19 15 -26 16 -13 20 -3 9 24 -8 20 -24 21 -24
2z"/>
<path d="M5355 12093 c-11 -3 -24 -11 -28 -19 -4 -8 -14 -14 -21 -14 -7 0 -22
-10 -34 -22 -20 -23 -20 -24 -5 -96 23 -105 28 -106 159 -34 28 15 30 42 8
103 -15 42 -22 65 -23 82 -1 8 -24 8 -56 0z"/>
<path d="M5745 12040 c-61 -31 -79 -53 -64 -82 5 -9 14 -40 20 -68 6 -28 17
-54 24 -56 21 -8 155 63 154 81 -2 34 -48 150 -60 152 -8 1 -41 -11 -74 -27z"/>
<path d="M6207 12043 c-4 -6 -27 -20 -52 -32 -31 -15 -45 -27 -45 -41 0 -27 6
-26 59 17 25 20 48 38 50 39 1 2 1 8 -1 15 -3 9 -6 10 -11 2z"/>
<path d="M5157 11989 c-21 -11 -37 -25 -34 -32 5 -15 87 -65 110 -66 9 -1 17
5 17 12 0 28 -32 107 -43 107 -7 -1 -29 -10 -50 -21z"/>
<path d="M5563 11947 c-68 -34 -71 -40 -51 -107 12 -38 14 -39 73 -47 72 -10
109 2 100 32 -4 11 -13 48 -21 82 -9 34 -21 63 -27 66 -7 2 -40 -9 -74 -26z"/>
<path d="M5990 11926 c-61 -30 -84 -56 -61 -70 5 -4 40 8 78 26 51 25 69 39
71 56 4 29 -10 28 -88 -12z"/>
<path d="M5408 11864 c-35 -18 -35 -32 -2 -44 24 -10 84 -14 84 -6 0 1 -5 17
-11 35 -12 34 -29 38 -71 15z"/>
<path d="M5833 11843 c-30 -15 -44 -33 -26 -33 14 0 82 35 83 43 0 11 -22 7
-57 -10z"/>
<path d="M6577 13716 c-67 -25 -77 -37 -77 -88 0 -70 17 -81 86 -56 27 9 38
24 63 81 17 38 31 74 31 78 0 14 -41 8 -103 -15z"/>
<path d="M4025 13690 c3 -5 8 -10 11 -10 2 0 4 5 4 10 0 6 -5 10 -11 10 -5 0
-7 -4 -4 -10z"/>
<path d="M3620 13669 c-302 -40 -562 -169 -762 -378 -101 -107 -138 -157 -138
-187 0 -32 20 -114 35 -144 7 -14 18 -43 25 -65 12 -37 22 -58 80 -160 107
-189 355 -376 575 -432 33 -8 65 -18 70 -22 6 -3 19 -7 30 -8 11 -1 58 -6 105
-11 76 -9 307 -8 317 1 1 2 -3 42 -11 88 -13 76 -22 171 -32 314 -5 81 37 365
67 458 11 31 19 68 19 81 0 14 4 27 9 30 4 3 22 43 40 88 17 46 52 122 76 169
25 48 45 93 45 101 0 10 -24 20 -77 32 -43 10 -89 21 -103 26 -58 19 -280 31
-370 19z"/>
<path d="M4583 13654 c3 -11 11 -37 16 -60 9 -35 16 -42 48 -52 89 -27 113
-11 91 61 -11 35 -46 54 -122 64 -34 5 -37 3 -33 -13z"/>
<path d="M8018 13563 c-9 -10 -21 -29 -28 -43 -27 -53 -100 -157 -129 -183
-17 -15 -31 -31 -31 -36 0 -9 -142 -119 -201 -156 -18 -11 -34 -25 -36 -31 -4
-12 69 -34 113 -34 31 0 230 -85 259 -112 32 -27 116 -67 131 -61 12 4 54 45
148 142 22 23 43 41 48 41 4 0 14 16 22 35 8 19 20 35 25 35 10 0 30 33 65
109 31 67 -15 128 -160 213 -54 31 -192 98 -204 98 -4 0 -14 -8 -22 -17z"/>
<path d="M7118 13313 c-24 -32 -77 -99 -118 -149 -103 -125 -120 -147 -120
-157 0 -7 141 -77 156 -77 3 0 20 -7 37 -14 68 -32 206 -86 218 -86 11 0 9 77
-6 200 -8 65 -91 314 -111 330 -9 9 -23 -2 -56 -47z"/>
<path d="M6887 13316 c-70 -11 -106 -38 -107 -76 0 -9 -5 -21 -11 -27 -21 -21
2 -33 65 -33 l62 0 52 66 c71 88 67 92 -61 70z"/>
<path d="M4064 13215 c-60 -144 -121 -565 -81 -565 7 0 17 4 22 9 6 5 80 44
165 86 268 133 280 140 280 149 0 11 -327 332 -353 347 -15 8 -20 4 -33 -26z"/>
<path d="M4290 13210 c0 -3 22 -29 49 -57 47 -49 51 -51 92 -46 50 5 99 22 99
33 0 15 -49 59 -72 64 -35 8 -168 12 -168 6z"/>
<path d="M7395 13048 c-58 -13 -64 -21 -53 -76 12 -57 16 -377 6 -482 -8 -86
-60 -303 -88 -370 -10 -25 -39 -91 -65 -147 -26 -56 -44 -107 -41 -112 9 -13
96 -42 191 -62 154 -32 489 -16 520 24 6 8 24 14 41 14 18 0 52 9 78 21 25 12
50 22 55 22 5 0 34 14 63 31 29 17 60 35 68 40 8 4 44 25 80 45 79 44 127 81
203 153 54 53 69 84 48 107 -5 5 -35 58 -66 119 -32 60 -70 128 -85 150 -54
78 -267 296 -313 322 -12 6 -53 32 -92 57 -38 25 -74 46 -81 46 -6 0 -33 9
-59 21 -120 53 -332 93 -410 77z"/>
<path d="M8218 12908 c-26 -28 -49 -57 -50 -65 -2 -8 33 -50 76 -93 l80 -78
26 21 c45 37 90 98 90 121 -1 11 -8 30 -18 41 -30 36 -123 105 -140 104 -10 0
-38 -23 -64 -51z"/>
<path d="M6905 12811 c-63 -32 -65 -55 -10 -88 83 -49 76 -49 143 -2 34 23 62
45 62 49 0 9 -48 33 -105 52 -38 13 -44 13 -90 -11z"/>
<path d="M7114 12637 c-94 -61 -180 -117 -190 -123 -37 -22 -30 -40 46 -119
17 -18 103 -107 172 -179 65 -69 67 -70 76 -46 50 130 77 268 81 411 1 57 5
107 8 112 6 11 -5 57 -15 57 -4 0 -84 -51 -178 -113z"/>
<path d="M4275 12682 c-38 -20 -70 -41 -70 -47 0 -5 14 -12 30 -16 17 -4 48
-12 70 -18 37 -9 43 -8 92 26 28 19 50 40 47 47 -4 9 -80 47 -94 46 -3 0 -36
-17 -75 -38z"/>
<path d="M3977 12614 c-25 -25 28 -348 78 -479 13 -33 29 -79 36 -102 7 -24
15 -43 18 -43 14 1 55 45 177 190 72 85 147 173 167 194 42 45 45 54 20 62
-10 3 -27 9 -38 14 -11 4 -58 22 -105 39 -47 18 -114 43 -150 57 -36 14 -87
34 -115 44 -27 10 -57 21 -66 24 -8 4 -18 3 -22 0z"/>
<path d="M2848 12563 c-52 -57 -71 -125 -45 -169 21 -37 123 -141 145 -148 17
-6 25 0 41 32 11 21 27 44 36 52 9 7 23 26 31 42 14 28 14 30 -18 56 -39 32
-69 63 -115 120 -20 23 -39 42 -42 42 -4 0 -19 -12 -33 -27z"/>
<path d="M3101 12312 c-20 -21 -50 -59 -67 -83 -38 -53 -126 -254 -126 -288
-1 -29 63 -87 105 -97 15 -3 40 -12 55 -20 15 -8 35 -14 45 -14 10 0 30 -6 45
-14 35 -18 192 -41 224 -33 16 4 31 20 42 45 10 22 27 50 39 63 12 13 42 51
66 84 49 67 101 119 179 178 53 40 62 53 40 54 -94 4 -190 14 -232 24 -92 22
-229 70 -298 105 -37 19 -70 34 -74 34 -3 0 -23 -17 -43 -38z"/>
<path d="M6812 12298 c-13 -13 -16 -35 -4 -40 4 -1 15 -16 24 -33 9 -16 23
-34 31 -39 15 -10 147 1 147 12 0 4 -12 21 -26 37 -15 17 -33 40 -41 53 -13
18 -24 22 -67 22 -29 0 -57 -5 -64 -12z"/>
<path d="M4368 12136 c-32 -36 -58 -69 -58 -75 0 -7 33 -11 95 -11 l95 0 25
40 c14 22 28 53 31 69 7 33 -10 41 -86 41 -43 -1 -48 -4 -102 -64z"/>
<path d="M3930 12183 c-61 -20 -216 -120 -263 -170 -70 -73 -98 -107 -135
-162 -20 -31 -40 -57 -44 -59 -5 -2 -8 -9 -8 -16 0 -6 -20 -45 -45 -85 -25
-40 -45 -79 -45 -87 0 -7 -11 -37 -24 -66 -25 -58 -62 -162 -76 -218 -22 -85
-32 -127 -40 -155 -5 -16 -14 -75 -21 -129 -12 -98 -12 -99 12 -116 12 -10 61
-30 109 -45 79 -25 124 -40 160 -53 8 -3 29 -7 45 -8 17 -1 68 -6 115 -12 113
-13 281 -7 354 13 54 14 61 14 69 0 10 -19 28 -10 20 10 -3 8 0 15 7 15 7 0
46 16 87 35 41 19 77 35 80 35 3 0 30 16 59 35 29 19 56 35 60 35 4 0 19 11
33 24 14 14 51 45 81 69 70 55 131 134 127 165 -2 14 -26 39 -68 68 -92 66
-305 285 -366 377 -62 92 -160 290 -198 402 -37 106 -43 112 -85 98z"/>
<path d="M6732 12084 c-15 -11 -15 -16 8 -104 109 -421 102 -400 123 -400 24
1 220 259 243 320 5 14 41 93 66 147 6 12 8 29 5 37 -6 14 -33 16 -218 14
-133 -2 -217 -7 -227 -14z"/>
<path d="M4590 11976 c-3 -2 -105 -6 -227 -8 -123 -3 -226 -8 -230 -12 -6 -6
45 -116 79 -171 99 -156 246 -335 276 -335 5 0 19 24 30 53 25 64 143 436 145
457 2 10 -9 16 -33 18 -20 2 -38 1 -40 -2z"/>
<path d="M8210 11895 c-14 -8 -58 -31 -97 -52 -40 -20 -73 -43 -73 -51 0 -22
44 -146 55 -154 11 -8 66 1 80 13 5 5 22 9 39 9 16 0 44 11 63 26 29 22 33 31
33 69 0 47 -45 155 -65 155 -5 0 -21 -7 -35 -15z"/>
<path d="M6575 11850 c-7 -12 3 -107 15 -128 6 -12 93 -54 144 -69 17 -5 18
-2 12 23 -9 36 -56 157 -65 166 -12 13 -98 20 -106 8z"/>
<path d="M7044 11709 c-38 -50 -75 -100 -83 -112 -7 -12 -28 -33 -45 -47 -17
-13 -55 -51 -85 -84 -56 -61 -154 -146 -170 -146 -5 0 -15 -7 -22 -17 -37 -44
-244 -161 -387 -217 -40 -16 -77 -35 -83 -42 -11 -14 25 -157 46 -184 7 -8 20
-30 29 -48 9 -18 25 -42 34 -54 52 -64 107 -124 121 -132 9 -5 18 -12 21 -16
8 -11 222 -125 260 -139 19 -7 44 -17 55 -21 34 -15 157 -48 220 -61 33 -6 74
-15 90 -19 38 -11 283 -32 310 -27 11 2 29 21 40 43 11 21 22 41 25 44 3 3 16
39 29 80 13 41 27 83 32 92 12 23 30 96 34 133 2 17 10 63 19 102 21 99 23
289 3 383 -28 128 -68 227 -130 320 -54 82 -253 260 -290 260 -3 0 -36 -41
-73 -91z"/>
<path d="M4750 11769 c-25 -11 -49 -28 -55 -37 -25 -44 -64 -147 -57 -153 4
-4 23 1 42 10 134 69 142 77 154 159 6 39 5 42 -16 41 -13 0 -43 -9 -68 -20z"/>
<path d="M7898 11760 c-105 -43 -405 -63 -520 -34 -38 9 -37 -14 3 -52 17 -16
47 -54 66 -84 20 -30 43 -66 52 -80 48 -74 85 -189 108 -340 8 -53 9 -55 41
-58 47 -5 200 32 257 62 17 9 36 16 43 16 6 0 12 5 12 10 0 6 7 10 15 10 8 0
15 4 15 9 0 5 10 13 23 17 63 20 78 66 56 176 -6 29 -15 78 -21 108 -17 89
-48 208 -60 235 -13 30 -27 30 -90 5z"/>
<path d="M3155 11715 c-6 -3 -43 -36 -83 -73 -59 -55 -72 -72 -72 -97 1 -36
15 -57 63 -89 46 -31 152 -69 175 -62 10 4 25 31 39 73 12 38 34 103 49 146
15 45 23 82 18 87 -10 10 -173 22 -189 15z"/>
<path d="M6388 11663 c0 -16 0 -35 1 -43 1 -8 1 -102 1 -209 l0 -193 27 7 c34
8 213 125 267 175 93 85 116 106 116 111 0 3 -26 18 -57 33 -32 15 -94 45
-138 66 -187 90 -214 96 -217 53z"/>
<path d="M4976 11612 c-3 -5 -33 -17 -68 -27 -35 -10 -67 -22 -73 -26 -13 -9
-206 -91 -267 -113 -27 -10 -48 -21 -48 -26 0 -13 81 -90 95 -90 7 0 15 -4 17
-9 4 -14 134 -98 191 -124 26 -12 47 -27 47 -33 0 -7 6 -12 13 -11 35 1 57 -5
71 -18 8 -9 32 -17 52 -18 28 -2 38 2 43 18 7 19 -10 294 -26 420 -6 44 -12
61 -25 63 -9 2 -19 -1 -22 -6z"/>
<path d="M6176 11583 c-3 -3 -6 -36 -6 -73 l0 -67 61 -67 c33 -36 65 -66 71
-66 6 0 7 34 4 91 l-7 92 -46 41 c-55 49 -68 57 -77 49z"/>
<path d="M5185 11485 c-44 -42 -58 -62 -57 -83 0 -15 1 -53 1 -84 0 -31 5 -59
11 -63 11 -7 54 24 102 73 23 22 28 36 29 77 0 28 2 59 4 70 6 29 -5 65 -20
65 -6 0 -38 -25 -70 -55z"/>
<path d="M4370 11520 c0 -5 5 -10 10 -10 6 0 10 5 10 10 0 6 -4 10 -10 10 -5
0 -10 -4 -10 -10z"/>
<path d="M5638 11420 c-21 -22 -38 -43 -38 -47 0 -4 19 -40 42 -80 l41 -73 28
28 c16 15 29 35 29 44 0 9 5 20 10 23 6 3 10 15 10 27 0 29 -52 118 -70 118
-8 0 -32 -18 -52 -40z"/>
<path d="M5931 11431 c-12 -16 -21 -32 -21 -36 0 -4 -8 -19 -18 -33 -11 -15
-32 -52 -49 -82 -16 -30 -53 -96 -81 -147 -29 -52 -49 -99 -46 -108 7 -18 74
-21 92 -3 10 10 17 10 32 1 11 -8 20 -8 22 -2 2 5 17 11 33 14 163 26 410 111
410 142 0 12 -35 42 -180 152 -50 37 -97 76 -104 85 -8 10 -27 24 -42 32 -26
13 -29 12 -48 -15z"/>
<path d="M5340 11337 c-52 -50 -131 -125 -174 -165 -48 -45 -75 -77 -70 -82
14 -14 161 -49 276 -65 114 -16 266 -19 286 -6 11 7 5 27 -29 97 -23 49 -53
103 -66 120 -13 17 -23 36 -23 43 0 16 -87 151 -97 151 -5 0 -51 -42 -103 -93z"/>
<path d="M4705 11198 c-2 -7 -6 -31 -9 -53 -3 -22 -11 -71 -16 -110 -26 -164
-27 -237 -5 -375 3 -23 43 -173 64 -245 13 -41 35 -99 41 -105 6 -6 16 -25 65
-120 21 -41 53 -93 70 -115 18 -22 39 -54 48 -71 9 -17 62 -81 119 -143 114
-124 121 -126 197 -87 25 13 62 30 81 37 43 16 154 79 158 91 2 4 8 8 13 8 15
0 122 83 150 116 9 11 44 45 78 77 62 59 87 91 161 212 59 96 122 268 151 410
23 114 34 281 19 290 -6 4 -48 -3 -95 -15 -179 -45 -497 -51 -688 -13 -18 4
-26 10 -23 19 7 17 -6 18 -22 2 -9 -9 -35 -5 -114 17 -57 15 -112 33 -123 40
-11 6 -38 18 -60 25 -22 7 -87 36 -144 66 -58 30 -106 54 -108 54 -2 0 -5 -6
-8 -12z"/>
<path d="M7750 11069 c-41 -10 -87 -20 -102 -24 -31 -6 -34 -15 -42 -118 -5
-65 -4 -68 19 -77 14 -5 48 -12 77 -15 29 -4 56 -9 60 -11 17 -11 49 9 64 39
10 18 19 66 22 117 6 110 2 114 -98 89z"/>
<path d="M4578 11043 c-17 -18 -75 -64 -161 -128 -26 -19 -53 -35 -61 -35 -7
0 -25 -9 -39 -20 -14 -11 -72 -37 -129 -57 -57 -20 -106 -40 -109 -45 -10 -15
1 -327 14 -418 16 -110 24 -115 192 -115 l120 0 135 69 c74 38 138 72 142 75
4 4 -1 31 -13 61 -11 30 -21 83 -22 117 -1 34 -6 61 -11 60 -5 -1 -13 16 -18
38 -13 54 -15 286 -4 358 7 47 6 57 -5 57 -8 0 -22 -8 -31 -17z"/>
<path d="M4198 10843 c7 -3 16 -2 19 1 4 3 -2 6 -13 5 -11 0 -14 -3 -6 -6z"/>
<path d="M6145 10793 c-10 -56 -47 -210 -62 -258 -20 -64 -97 -227 -134 -283
-16 -24 -27 -48 -24 -52 12 -19 153 -120 168 -120 8 0 17 -4 19 -8 13 -34 240
-102 287 -87 9 2 27 26 41 52 13 27 39 69 57 95 18 26 33 51 33 56 0 4 20 49
45 100 60 123 60 135 -12 170 -133 65 -169 90 -248 167 -46 45 -97 107 -115
138 -18 32 -36 57 -41 57 -5 0 -11 -12 -14 -27z"/>
<path d="M3932 10783 c-10 -4 -8 -8 5 -18 27 -20 15 -24 -64 -26 -39 -1 -77
-5 -84 -10 -10 -6 -14 -31 -14 -83 0 -64 3 -79 22 -97 23 -24 96 -32 185 -22
l47 5 -4 107 c-3 98 -5 106 -24 109 -12 2 -21 7 -21 12 0 13 -33 28 -48 23z"/>
<path d="M6646 10323 c-39 -97 -50 -132 -43 -139 3 -3 35 -17 72 -30 77 -28
151 -31 192 -8 46 27 93 96 93 137 0 36 -1 37 -57 52 -32 9 -89 25 -128 35
-38 11 -77 20 -86 20 -9 0 -25 -25 -43 -67z"/>
<path d="M4685 10301 c-6 -5 -47 -28 -92 -51 -75 -38 -83 -44 -83 -71 0 -36
35 -93 97 -158 45 -47 47 -48 87 -39 65 14 124 39 143 60 17 19 17 21 -1 51
-11 18 -25 43 -33 57 -88 155 -99 169 -118 151z"/>
<path d="M5820 10083 c-36 -38 -84 -84 -106 -104 -53 -46 -61 -67 -31 -78 13
-5 29 -16 36 -25 7 -9 26 -16 42 -16 15 0 30 -4 33 -9 8 -13 107 0 146 19 63
32 108 81 116 126 6 40 5 42 -32 64 -22 13 -57 39 -78 57 -22 18 -44 33 -50
33 -5 0 -40 -30 -76 -67z"/>
<path d="M3320 8289 c0 -3 -22 -56 -50 -119 -27 -63 -50 -118 -50 -122 0 -4
45 -8 100 -8 63 0 100 4 100 10 0 6 -21 61 -46 123 -43 103 -54 128 -54 116z"/>
<path d="M5809 8243 c-6 -21 -27 -72 -45 -115 -19 -42 -34 -79 -34 -82 0 -3
45 -6 100 -6 57 0 100 4 100 10 0 19 -89 225 -98 228 -6 2 -16 -14 -23 -35z"/>
<path d="M7207 8170 c-26 -61 -47 -115 -47 -120 0 -6 42 -10 101 -10 92 0 101
2 96 18 -14 45 -91 222 -97 222 -4 0 -28 -50 -53 -110z"/>
<path d="M4858 8354 c-5 -4 -8 -122 -8 -262 l0 -255 135 5 c127 4 136 6 182
34 73 45 103 111 103 223 0 115 -30 181 -104 226 -47 28 -56 30 -175 33 -69 2
-129 0 -133 -4z"/>
</g>
</svg>
